<svg id="svg" version="1.1" xmlns="http://www.w3.org/2000/svg" xmlns:xlink="http://www.w3.org/1999/xlink" width="400" height="300" viewBox="0, 0, 400,300"><g id="svgg"><path id="path0" d="M192.000 52.219 C 128.890 57.669,87.345 119.885,106.605 180.100 C 118.086 215.991,150.148 242.650,187.400 247.279 C 251.416 255.235,305.232 201.475,297.293 137.500 C 290.890 85.902,243.782 47.747,192.000 52.219 M180.046 145.250 L 180.100 180.100 180.632 182.025 C 182.920 190.302,189.648 194.807,199.700 194.795 C 210.200 194.782,216.831 190.163,218.926 181.400 C 219.263 179.993,219.289 177.748,219.347 145.150 L 219.409 110.400 223.004 110.400 L 226.600 110.400 226.600 144.924 C 226.600 182.575,226.628 181.577,225.466 185.280 C 222.159 195.824,213.068 201.652,199.900 201.670 C 186.838 201.688,177.584 196.184,174.279 186.432 C 172.801 182.068,172.922 185.509,172.853 145.950 L 172.791 110.400 176.391 110.400 L 179.991 110.400 180.046 145.250 " stroke="none" fill="#fc0424" fill-rule="evenodd"></path><path id="path1" d="M0.000 150.000 L 0.000 300.000 200.000 300.000 L 400.000 300.000 400.000 150.000 L 400.000 0.000 200.000 0.000 L 0.000 0.000 0.000 150.000 M206.700 52.005 C 258.444 55.765,298.198 98.342,298.198 150.000 C 298.198 205.125,252.899 249.404,197.800 248.137 C 134.638 246.685,89.413 187.191,104.805 125.800 C 116.260 80.111,159.776 48.595,206.700 52.005 M172.850 145.450 C 172.905 177.371,172.939 180.454,173.254 182.134 C 175.656 194.979,185.629 201.979,200.900 201.538 C 213.471 201.176,222.102 195.485,225.265 185.474 C 226.562 181.367,226.483 183.838,226.550 145.450 L 226.611 110.600 223.112 110.600 L 219.613 110.600 219.548 145.050 C 219.484 179.126,219.479 179.520,219.067 181.304 C 216.939 190.517,209.339 195.503,198.300 194.927 C 188.531 194.417,182.315 189.679,180.275 181.189 C 179.940 179.794,179.913 177.520,179.853 145.150 L 179.789 110.600 176.290 110.600 L 172.790 110.600 172.850 145.450 " stroke="none" fill="#fcfbfb" fill-rule="evenodd"></path><path id="path2" d="M131.687 79.450 L 131.100 80.100 131.750 79.513 C 132.108 79.190,132.400 78.897,132.400 78.863 C 132.400 78.708,132.235 78.844,131.687 79.450 M129.389 81.750 L 128.700 82.500 129.450 81.811 C 130.148 81.169,130.292 81.000,130.139 81.000 C 130.106 81.000,129.768 81.338,129.389 81.750 M179.898 143.700 C 179.898 161.960,179.921 169.460,179.950 160.366 C 179.979 151.272,179.979 136.332,179.950 127.166 C 179.921 118.000,179.898 125.440,179.898 143.700 M184.200 189.063 C 184.200 189.097,184.493 189.390,184.850 189.713 L 185.500 190.300 184.913 189.650 C 184.365 189.044,184.200 188.908,184.200 189.063 M129.400 218.300 C 129.773 218.685,130.123 219.000,130.178 219.000 C 130.233 219.000,129.973 218.685,129.600 218.300 C 129.227 217.915,128.877 217.600,128.822 217.600 C 128.767 217.600,129.027 217.915,129.400 218.300 M131.200 220.063 C 131.200 220.097,131.493 220.390,131.850 220.713 L 132.500 221.300 131.913 220.650 C 131.365 220.044,131.200 219.908,131.200 220.063 M268.087 220.650 L 267.500 221.300 268.150 220.713 C 268.756 220.165,268.892 220.000,268.737 220.000 C 268.703 220.000,268.410 220.293,268.087 220.650 " stroke="none" fill="#fc9aa5" fill-rule="evenodd"></path><path id="path3" d="M198.250 51.949 C 199.213 51.986,200.788 51.986,201.750 51.949 C 202.713 51.912,201.925 51.882,200.000 51.882 C 198.075 51.882,197.288 51.912,198.250 51.949 M269.392 80.650 C 270.220 81.533,270.400 81.692,270.400 81.542 C 270.400 81.510,269.973 81.082,269.450 80.592 L 268.500 79.700 269.392 80.650 M174.550 110.549 C 175.567 110.585,177.233 110.585,178.250 110.549 C 179.268 110.513,178.435 110.483,176.400 110.483 C 174.365 110.483,173.533 110.513,174.550 110.549 M221.150 110.549 C 222.168 110.585,223.832 110.585,224.850 110.549 C 225.868 110.513,225.035 110.483,223.000 110.483 C 220.965 110.483,220.132 110.513,221.150 110.549 M101.870 148.200 C 101.870 149.135,101.904 149.518,101.946 149.050 C 101.989 148.583,101.989 147.817,101.946 147.350 C 101.904 146.883,101.870 147.265,101.870 148.200 M298.069 148.300 C 298.069 149.180,298.104 149.515,298.147 149.045 C 298.189 148.574,298.188 147.854,298.145 147.445 C 298.102 147.035,298.068 147.420,298.069 148.300 M101.870 151.800 C 101.870 152.735,101.904 153.118,101.946 152.650 C 101.989 152.183,101.989 151.417,101.946 150.950 C 101.904 150.483,101.870 150.865,101.870 151.800 M298.069 151.700 C 298.069 152.580,298.104 152.915,298.147 152.445 C 298.189 151.974,298.188 151.254,298.145 150.845 C 298.102 150.435,298.068 150.820,298.069 151.700 M179.200 194.500 C 179.573 194.885,179.923 195.200,179.978 195.200 C 180.033 195.200,179.773 194.885,179.400 194.500 C 179.027 194.115,178.677 193.800,178.622 193.800 C 178.567 193.800,178.827 194.115,179.200 194.500 M199.150 194.945 C 199.508 194.989,200.093 194.989,200.450 194.945 C 200.808 194.900,200.515 194.864,199.800 194.864 C 199.085 194.864,198.793 194.900,199.150 194.945 M198.053 201.744 C 198.357 201.789,198.807 201.788,199.053 201.741 C 199.299 201.693,199.050 201.656,198.500 201.657 C 197.950 201.659,197.749 201.698,198.053 201.744 M200.653 201.744 C 200.957 201.789,201.407 201.788,201.653 201.741 C 201.899 201.693,201.650 201.656,201.100 201.657 C 200.550 201.659,200.349 201.698,200.653 201.744 M269.389 219.350 L 268.700 220.100 269.450 219.411 C 270.148 218.769,270.292 218.600,270.139 218.600 C 270.106 218.600,269.768 218.938,269.389 219.350 M198.250 248.149 C 199.213 248.186,200.788 248.186,201.750 248.149 C 202.713 248.112,201.925 248.082,200.000 248.082 C 198.075 248.082,197.288 248.112,198.250 248.149 " stroke="none" fill="#fc7c8c" fill-rule="evenodd"></path><path id="path4" d="M219.498 144.000 C 219.498 162.425,219.521 169.962,219.550 160.750 C 219.579 151.537,219.579 136.462,219.550 127.250 C 219.521 118.037,219.498 125.575,219.498 144.000 M179.846 177.400 C 179.846 177.785,179.888 177.942,179.938 177.750 C 179.988 177.558,179.988 177.243,179.938 177.050 C 179.888 176.858,179.846 177.015,179.846 177.400 " stroke="none" fill="#fccbd2" fill-rule="evenodd"></path></g></svg>